<?xml version="1.0" encoding="UTF-8"?>
  <svg xmlns="http://www.w3.org/2000/svg" viewBox="0 0 1400 1000" width="1400" height="1000">
    <defs>
      <marker id="arrow" markerWidth="10" markerHeight="10" refX="9" refY="3" orient="auto" markerUnits="strokeWidth">
        <path d="M0,0 L0,6 L9,3 z" fill="#111"/>
      </marker>
      <marker id="arrowOpen" markerWidth="10" markerHeight="10" refX="9" refY="3" orient="auto" markerUnits="strokeWidth">
        <path d="M0,0 L0,6 L9,3 z" fill="none" stroke="#111" stroke-width="1.2"/>
      </marker>
    </defs>
    <rect width="1400" height="1000" fill="#ffffff"/>
    <text x="700" y="46" text-anchor="middle" font-family="Helvetica, Arial, sans-serif" font-size="24" font-weight="700" fill="#111">FIG. 6 — Wireframes</text>
    
    <text x="700" y="76" text-anchor="middle" font-family="Helvetica, Arial, sans-serif" font-size="13" fill="#555">Primary screens: Home, Recovery (locked / unlocked), Social Mode</text>
    
      <rect x="60" y="130" width="280" height="580" rx="32" ry="32" fill="#fff" stroke="#111" stroke-width="2"/>
      <rect x="72" y="142" width="256" height="556" rx="22" ry="22" fill="#fff" stroke="#ccc" stroke-width="1"/>
      <rect x="170" y="148" width="60" height="14" rx="7" ry="7" fill="#111"/>
      <text x="200" y="740" text-anchor="middle" font-family="Helvetica, Arial, sans-serif" font-size="14" font-weight="700" fill="#111">A — Home (Score Orb)</text>
      
    <text x="200" y="198" text-anchor="middle" font-family="Helvetica, Arial, sans-serif" font-size="11" fill="#666">7:24 AM · BALANCED</text>
    <circle cx="200" cy="324" r="90" fill="none" stroke="#111" stroke-width="2"/>
    <circle cx="200" cy="324" r="60" fill="none" stroke="#111" stroke-width="1" stroke-dasharray="3 3"/>
    <text x="200" y="319" text-anchor="middle" font-family="Helvetica, Arial, sans-serif" font-size="32" font-weight="700" fill="#111">72</text>
    <text x="200" y="339" text-anchor="middle" font-family="Helvetica, Arial, sans-serif" font-size="10" fill="#666">SCORE</text>
    <rect x="88" y="434" width="224" height="40" rx="8" fill="#f1f1f1" stroke="#ddd"/>
    <text x="200" y="459" text-anchor="middle" font-family="Helvetica, Arial, sans-serif" font-size="11" fill="#222">Drink 12oz · +8 score</text>
    <rect x="88" y="486" width="224" height="44" rx="22" fill="#111"/>
    <text x="200" y="514" text-anchor="middle" font-family="Helvetica, Arial, sans-serif" font-size="13" font-weight="700" fill="#fff">LOG AFORCE</text>
    <rect x="88" y="546" width="108" height="36" rx="8" fill="none" stroke="#111"/>
    <text x="142" y="569" text-anchor="middle" font-family="Helvetica, Arial, sans-serif" font-size="11" fill="#111">Water</text>
    <rect x="204" y="546" width="108" height="36" rx="8" fill="none" stroke="#111"/>
    <text x="258" y="569" text-anchor="middle" font-family="Helvetica, Arial, sans-serif" font-size="11" fill="#111">Snooze</text>
    <rect x="88" y="598" width="224" height="60" rx="8" fill="none" stroke="#bbb" stroke-dasharray="3 3"/>
    <text x="200" y="624" text-anchor="middle" font-family="Helvetica, Arial, sans-serif" font-size="10" fill="#666">Signals · weather · streak · voice pill</text>
  
    
    
      <rect x="380" y="130" width="280" height="580" rx="32" ry="32" fill="#fff" stroke="#111" stroke-width="2"/>
      <rect x="392" y="142" width="256" height="556" rx="22" ry="22" fill="#fff" stroke="#ccc" stroke-width="1"/>
      <rect x="490" y="148" width="60" height="14" rx="7" ry="7" fill="#111"/>
      <text x="520" y="740" text-anchor="middle" font-family="Helvetica, Arial, sans-serif" font-size="14" font-weight="700" fill="#111">B — Recovery (Locked)</text>
      
    <text x="520" y="196" text-anchor="middle" font-family="Helvetica, Arial, sans-serif" font-size="11" fill="#666">Recovery Mode</text>
    <rect x="408" y="214" width="224" height="464" rx="14" fill="#fafafa" stroke="#111" stroke-width="1.5"/>
    <text x="520" y="254" text-anchor="middle" font-family="Helvetica, Arial, sans-serif" font-size="36" fill="#111">🔒</text>
    <text x="520" y="314" text-anchor="middle" font-family="Helvetica, Arial, sans-serif" font-size="14" font-weight="700" fill="#111">Recovery Mode</text>
    <text x="520" y="334" text-anchor="middle" font-family="Helvetica, Arial, sans-serif" font-size="11" fill="#666">Premium feature</text>
    <text x="520" y="374" text-anchor="middle" font-family="Helvetica, Arial, sans-serif" font-size="11" fill="#444">HRV-aware recovery prompts,</text>
    <text x="520" y="390" text-anchor="middle" font-family="Helvetica, Arial, sans-serif" font-size="11" fill="#444">tailored hydration window,</text>
    <text x="520" y="406" text-anchor="middle" font-family="Helvetica, Arial, sans-serif" font-size="11" fill="#444">priority alerts.</text>
    <rect x="432" y="454" width="176" height="44" rx="22" fill="#111"/>
    <text x="520" y="482" text-anchor="middle" font-family="Helvetica, Arial, sans-serif" font-size="13" font-weight="700" fill="#fff">UNLOCK · $9.99/mo</text>
    <text x="520" y="534" text-anchor="middle" font-family="Helvetica, Arial, sans-serif" font-size="10" fill="#888">Cancel anytime · Stripe</text>
  
    
    
      <rect x="700" y="130" width="280" height="580" rx="32" ry="32" fill="#fff" stroke="#111" stroke-width="2"/>
      <rect x="712" y="142" width="256" height="556" rx="22" ry="22" fill="#fff" stroke="#ccc" stroke-width="1"/>
      <rect x="810" y="148" width="60" height="14" rx="7" ry="7" fill="#111"/>
      <text x="840" y="740" text-anchor="middle" font-family="Helvetica, Arial, sans-serif" font-size="14" font-weight="700" fill="#111">C — Recovery (Unlocked)</text>
      
    <text x="840" y="196" text-anchor="middle" font-family="Helvetica, Arial, sans-serif" font-size="11" fill="#666">Recovery Mode · Active</text>
    <rect x="728" y="214" width="224" height="464" rx="14" fill="#fff" stroke="#111" stroke-width="1.5"/>
    <text x="840" y="256" text-anchor="middle" font-family="Helvetica, Arial, sans-serif" font-size="22" font-weight="700" fill="#111">In Recovery</text>
    <text x="840" y="276" text-anchor="middle" font-family="Helvetica, Arial, sans-serif" font-size="11" fill="#666">Window: 4h 12m remaining</text>

    <rect x="742" y="304" width="196" height="60" rx="8" fill="#f5f5f5" stroke="#ccc"/>
    <text x="752" y="324" font-family="Helvetica, Arial, sans-serif" font-size="11" font-weight="700" fill="#111">Next sip</text>
    <text x="752" y="342" font-family="Helvetica, Arial, sans-serif" font-size="10" fill="#444">12 oz water in 18 min</text>
    <text x="752" y="356" font-family="Helvetica, Arial, sans-serif" font-size="10" fill="#444">HRV-paced</text>

    <rect x="742" y="374" width="196" height="60" rx="8" fill="#f5f5f5" stroke="#ccc"/>
    <text x="752" y="394" font-family="Helvetica, Arial, sans-serif" font-size="11" font-weight="700" fill="#111">Recovery target</text>
    <text x="752" y="412" font-family="Helvetica, Arial, sans-serif" font-size="10" fill="#444">96 oz · 3 electrolyte sticks</text>
    <text x="752" y="426" font-family="Helvetica, Arial, sans-serif" font-size="10" fill="#444">2 / 3 logged</text>

    <rect x="742" y="444" width="196" height="50" rx="8" fill="#f5f5f5" stroke="#ccc"/>
    <text x="752" y="464" font-family="Helvetica, Arial, sans-serif" font-size="11" font-weight="700" fill="#111">Sleep & HRV</text>
    <text x="752" y="480" font-family="Helvetica, Arial, sans-serif" font-size="10" fill="#444">7.2h · HRV 65 (steady)</text>

    <rect x="742" y="514" width="196" height="34" rx="17" fill="none" stroke="#111"/>
    <text x="840" y="535" text-anchor="middle" font-family="Helvetica, Arial, sans-serif" font-size="11" fill="#111">Manage subscription</text>
  
    
    
      <rect x="1020" y="130" width="280" height="580" rx="32" ry="32" fill="#fff" stroke="#111" stroke-width="2"/>
      <rect x="1032" y="142" width="256" height="556" rx="22" ry="22" fill="#fff" stroke="#ccc" stroke-width="1"/>
      <rect x="1130" y="148" width="60" height="14" rx="7" ry="7" fill="#111"/>
      <text x="1160" y="740" text-anchor="middle" font-family="Helvetica, Arial, sans-serif" font-size="14" font-weight="700" fill="#111">D — Social Mode</text>
      
    <text x="1160" y="196" text-anchor="middle" font-family="Helvetica, Arial, sans-serif" font-size="11" fill="#666">Social Mode · Active</text>

    <circle cx="1160" cy="284" r="60" fill="none" stroke="#111" stroke-width="2"/>
    <text x="1160" y="279" text-anchor="middle" font-family="Helvetica, Arial, sans-serif" font-size="22" font-weight="700" fill="#111">0.04</text>
    <text x="1160" y="296" text-anchor="middle" font-family="Helvetica, Arial, sans-serif" font-size="9" fill="#666">est. BAC</text>

    <text x="1160" y="369" text-anchor="middle" font-family="Helvetica, Arial, sans-serif" font-size="13" font-weight="700" fill="#111">Elevated</text>
    <text x="1160" y="387" text-anchor="middle" font-family="Helvetica, Arial, sans-serif" font-size="10" fill="#666">2 drinks · 1h 12m</text>

    <rect x="1048" y="414" width="224" height="44" rx="22" fill="#111"/>
    <text x="1160" y="442" text-anchor="middle" font-family="Helvetica, Arial, sans-serif" font-size="13" font-weight="700" fill="#fff">LOG DRINK</text>

    <rect x="1048" y="470" width="108" height="36" rx="8" fill="none" stroke="#111"/>
    <text x="1102" y="493" text-anchor="middle" font-family="Helvetica, Arial, sans-serif" font-size="11" fill="#111">Hydrate</text>
    <rect x="1164" y="470" width="108" height="36" rx="8" fill="none" stroke="#111"/>
    <text x="1218" y="493" text-anchor="middle" font-family="Helvetica, Arial, sans-serif" font-size="11" fill="#111">End</text>

    <rect x="1048" y="522" width="224" height="60" rx="8" fill="#fff5e0" stroke="#d49a00"/>
    <text x="1160" y="544" text-anchor="middle" font-family="Helvetica, Arial, sans-serif" font-size="11" font-weight="700" fill="#7a5b00">Plan a ride home</text>
    <text x="1160" y="562" text-anchor="middle" font-family="Helvetica, Arial, sans-serif" font-size="10" fill="#7a5b00">Tap to open rideshare</text>

    <rect x="1048" y="592" width="224" height="50" rx="8" fill="none" stroke="#bbb" stroke-dasharray="3 3"/>
    <text x="1160" y="622" text-anchor="middle" font-family="Helvetica, Arial, sans-serif" font-size="10" fill="#666">Drink history (chronological)</text>
  
    
  
    <text x="1380" y="984" text-anchor="end" font-family="Helvetica, Arial, sans-serif" font-size="11" fill="#777">AForce OS · Patent Figure</text>
  </svg>